<svg width="31" height="31" viewBox="0 0 31 31" fill="none" xmlns="http://www.w3.org/2000/svg">
<path d="M15.5001 10.5691C12.7859 10.5691 10.5708 12.7842 10.5708 15.4985C10.5708 18.2127 12.7859 20.4278 15.5001 20.4278C18.2144 20.4278 20.4295 18.2127 20.4295 15.4985C20.4295 12.7842 18.2144 10.5691 15.5001 10.5691ZM30.2844 15.4985C30.2844 13.4572 30.3029 11.4345 30.1883 9.39691C30.0736 7.03024 29.5337 4.92982 27.8031 3.1992C26.0688 1.46488 23.9721 0.928678 21.6054 0.814043C19.5642 0.699407 17.5414 0.717897 15.5038 0.717897C13.4626 0.717897 11.4398 0.699407 9.40228 0.814043C7.03561 0.928678 4.93519 1.46857 3.20457 3.1992C1.47025 4.93352 0.934049 7.03024 0.819414 9.39691C0.704778 11.4382 0.723268 13.4609 0.723268 15.4985C0.723268 17.536 0.704778 19.5625 0.819414 21.6C0.934049 23.9667 1.47395 26.0671 3.20457 27.7977C4.93889 29.5321 7.03561 30.0683 9.40228 30.1829C11.4435 30.2975 13.4663 30.279 15.5038 30.279C17.5451 30.279 19.5679 30.2975 21.6054 30.1829C23.9721 30.0683 26.0725 29.5284 27.8031 27.7977C29.5374 26.0634 30.0736 23.9667 30.1883 21.6C30.3066 19.5625 30.2844 17.5397 30.2844 15.4985ZM15.5001 23.0829C11.303 23.0829 7.91572 19.6956 7.91572 15.4985C7.91572 11.3013 11.303 7.91404 15.5001 7.91404C19.6973 7.91404 23.0846 11.3013 23.0846 15.4985C23.0846 19.6956 19.6973 23.0829 15.5001 23.0829ZM23.3952 9.37472C22.4152 9.37472 21.6239 8.58336 21.6239 7.60342C21.6239 6.62347 22.4152 5.83212 23.3952 5.83212C24.3751 5.83212 25.1665 6.62347 25.1665 7.60342C25.1668 7.83611 25.1212 8.06657 25.0323 8.28161C24.9433 8.49665 24.8129 8.69203 24.6483 8.85657C24.4838 9.02111 24.2884 9.15157 24.0734 9.24048C23.8584 9.32939 23.6279 9.37501 23.3952 9.37472Z" fill="#70859E"/>
</svg>
