<svg width="29" height="28" viewBox="0 0 29 28" fill="none" xmlns="http://www.w3.org/2000/svg">
<path d="M26.1985 0H3.79854C2.25854 0 0.998535 1.26 0.998535 2.8V25.2C0.998535 26.74 2.25854 28 3.79854 28H26.1985C27.7385 28 28.9985 26.74 28.9985 25.2V2.8C28.9985 1.26 27.7385 0 26.1985 0ZM9.39854 23.8H5.19854V11.2H9.39854V23.8ZM7.29854 8.82C5.89854 8.82 4.77854 7.7 4.77854 6.3C4.77854 4.9 5.89854 3.78 7.29854 3.78C8.69854 3.78 9.81854 4.9 9.81854 6.3C9.81854 7.7 8.69854 8.82 7.29854 8.82ZM24.7985 23.8H20.5985V16.38C20.5985 15.2601 19.6185 14.28 18.4985 14.28C17.3785 14.28 16.3985 15.2601 16.3985 16.38V23.8H12.1985V11.2H16.3985V12.88C17.0985 11.76 18.6385 10.92 19.8985 10.92C22.5585 10.92 24.7985 13.16 24.7985 15.82V23.8Z" fill="#70859E"/>
</svg>
