<svg width="35" height="46" viewBox="0 0 35 46" fill="none" xmlns="http://www.w3.org/2000/svg">
<path d="M15.9994 44.9315C2.99327 26.0765 0.579102 24.1414 0.579102 17.2119C0.579102 7.72004 8.27375 0.0253906 17.7656 0.0253906C27.2575 0.0253906 34.9522 7.72004 34.9522 17.2119C34.9522 24.1414 32.538 26.0765 19.5319 44.9315C18.6784 46.1645 16.8528 46.1644 15.9994 44.9315ZM17.7656 24.373C21.7206 24.373 24.9267 21.1669 24.9267 17.2119C24.9267 13.257 21.7206 10.0509 17.7656 10.0509C13.8107 10.0509 10.6046 13.257 10.6046 17.2119C10.6046 21.1669 13.8107 24.373 17.7656 24.373Z" fill="#FFD30B"/>
</svg>
