<svg width="59" height="48" viewBox="0 0 59 48" fill="none" xmlns="http://www.w3.org/2000/svg">
<path d="M58.2814 29.1406C58.2814 13.0467 45.2346 0 29.1406 0C13.0467 0 0 13.0467 0 29.1406C0 36.0904 2.43771 42.4698 6.49963 47.4794H51.7845C55.8436 42.4698 58.2814 36.0904 58.2814 29.1406ZM29.2273 36.2245C29.2497 36.1993 29.272 36.1742 29.2916 36.149C30.6251 34.5779 31.5476 32.7161 31.9949 30.7369C33.018 32.6658 35.0924 33.9322 37.4909 33.9322C39.6687 33.9322 41.5836 32.8839 42.6822 31.2458V38.3379C41.1167 39.0843 39.3528 39.5009 37.4909 39.5009C34.2733 39.5009 31.3547 38.2596 29.2273 36.2245ZM49.2714 42.1119C46.1739 42.1119 43.6607 39.5988 43.6607 36.5013V33.2026V27.9917C43.6607 24.6091 40.896 21.6877 37.4882 21.6877C34.0805 21.6877 31.3156 24.6091 31.3156 27.9917C31.3156 30.8543 30.2701 33.4821 28.5425 35.5144C26.3787 38.0611 23.1387 39.6826 19.5269 39.6826C13.03 39.6826 7.74356 34.4382 7.74356 27.9888C7.74356 27.659 7.75765 27.332 7.78561 27.0077C8.2888 21.0168 13.3627 16.2979 19.5269 16.2979C21.7885 16.2979 23.9046 16.9325 25.6993 18.034V14.6849C25.6993 11.5847 28.2126 9.07431 31.31 9.07431L31.3128 16.7676C31.1367 16.8655 30.9633 16.9689 30.79 17.0779C29.669 17.7852 28.6626 18.6574 27.8016 19.675C27.7764 19.7057 27.7485 19.7336 27.7234 19.7644C26.8791 20.7764 26.1998 21.9058 25.7022 23.1022C25.417 23.7872 25.1934 24.4944 25.0313 25.2157C24.0081 23.2281 21.9282 21.8666 19.5269 21.8666C16.4546 21.8666 13.9078 24.0947 13.4354 27.0104C13.3823 27.3291 13.3543 27.659 13.3543 27.9917C13.3543 31.3743 16.1163 34.1166 19.5269 34.1166C22.9346 34.1166 25.7049 31.3743 25.7049 27.9917C25.7049 25.1291 26.7476 22.4649 28.4781 20.3907C29.286 19.4206 30.2421 18.5791 31.3128 17.9054C33.1103 16.776 35.2266 16.1163 37.4882 16.1163C43.9851 16.1163 49.2714 21.5423 49.2714 27.9888V42.1119Z" fill="#FFDD00"/>
</svg>
