<svg width="104" height="59" viewBox="0 0 104 59" fill="none" xmlns="http://www.w3.org/2000/svg">
<path d="M101.441 41.0573C101.441 41.0024 101.441 41.0024 101.386 40.9475C101.386 40.8926 101.331 40.8926 101.276 40.8926C101.222 40.8926 101.112 40.8926 101.003 40.8926H100.893V41.2769H101.003C101.167 41.2769 101.276 41.2769 101.276 41.2769C101.331 41.2769 101.331 41.222 101.386 41.222C101.441 41.1122 101.441 41.0573 101.441 41.0573Z" fill="white"/>
<path d="M101.715 40.3989C101.55 40.2891 101.386 40.2891 101.222 40.2891C101.058 40.2891 100.893 40.344 100.729 40.3989C100.565 40.5087 100.455 40.6185 100.346 40.7832C100.236 40.9479 100.182 41.1126 100.182 41.3323C100.182 41.497 100.236 41.7166 100.291 41.8813C100.401 42.046 100.51 42.1559 100.674 42.2657C100.839 42.3755 101.003 42.4304 101.167 42.4304C101.331 42.4304 101.496 42.3755 101.66 42.2657C101.824 42.1559 101.934 42.046 102.043 41.8813C102.153 41.7166 102.207 41.5519 102.207 41.3323C102.207 41.1676 102.153 40.9479 102.043 40.7832C101.988 40.6185 101.879 40.5087 101.715 40.3989ZM101.496 41.9911L101.386 41.7715C101.331 41.6068 101.222 41.497 101.222 41.497C101.167 41.4421 101.112 41.4421 101.058 41.4421H101.003V41.9911H100.729V40.6185H101.003C101.277 40.6185 101.386 40.6185 101.441 40.6185C101.55 40.6185 101.605 40.6185 101.66 40.6734C101.715 40.7283 101.769 40.7283 101.769 40.7832C101.824 40.8381 101.824 40.893 101.824 41.0028C101.824 41.1126 101.769 41.1676 101.715 41.2774C101.66 41.3323 101.55 41.3872 101.441 41.3872C101.496 41.3872 101.496 41.4421 101.55 41.4421C101.55 41.4421 101.605 41.497 101.66 41.5519C101.66 41.5519 101.715 41.6068 101.769 41.7166L101.934 41.9911H101.496Z" fill="white"/>
<path d="M101.222 39.3553C100.291 39.3553 99.4698 40.0142 99.3055 40.9475C98.9223 40.3985 98.539 39.9043 98.101 39.4651C97.1155 38.4768 96.0204 37.763 94.7064 37.214C93.4471 36.7198 92.133 36.4453 90.6547 36.4453C89.6692 36.4453 88.6836 36.5551 87.7529 36.8296C87.2053 36.9944 86.6578 37.1591 86.1103 37.3787C85.8365 37.2689 85.5628 37.214 85.2343 37.1591C83.975 36.9394 82.8799 36.9394 81.9491 37.0493C81.4564 37.1042 80.9636 37.214 80.5256 37.3238C80.1971 37.1591 79.7591 36.9944 79.3758 36.8845C79.0473 36.7747 78.7735 36.7198 78.3903 36.6649C78.2807 36.3355 78.1712 36.0061 78.007 35.6766C77.8427 35.2923 77.6237 34.9629 77.4047 34.6334C77.1857 34.3589 76.9667 34.1393 76.7477 33.8647C76.6929 33.8098 76.6382 33.7549 76.6382 33.7549C76.3097 33.4804 75.9264 33.2059 75.5432 32.9863C75.4336 32.9313 75.2694 32.8215 75.1599 32.7666C79.1568 31.0646 81.7849 28.7036 82.0586 25.3544V25.2995V25.1897C82.0586 24.8053 82.0586 24.421 82.0039 24.0367C81.5659 21.4012 79.2663 19.5893 76.4739 18.4363C74.2291 17.5578 71.601 17.0637 69.4657 16.8989C69.5204 16.4597 69.4657 16.0754 69.4109 15.6361C69.3562 15.0871 69.1919 14.5929 68.9729 14.0988C69.9037 13.385 70.6155 12.5065 71.1082 11.5731C72.0938 9.70632 72.258 7.56501 71.4915 5.58841C71.2177 4.92955 70.944 4.38049 70.5607 3.88634C69.5204 2.5137 68.0421 1.69012 66.4543 1.41559C64.976 1.14107 63.3882 1.30578 61.9646 1.90974C61.9099 1.90974 61.8551 1.96465 61.8004 1.96465C61.2529 1.41559 60.5958 1.03126 59.8293 0.701823C58.2415 0.0429574 56.3799 -0.0668536 54.8469 0.0429574L40.6113 1.14107C39.8995 1.19597 39.2425 1.58031 38.8593 2.29408C37.9832 3.94125 37.3262 5.09426 36.6144 6.30218C35.9574 7.4552 35.3551 8.55331 34.8076 9.54161C31.194 10.3652 27.0876 12.0124 23.8572 14.538C21.0101 16.7891 18.8748 19.754 18.382 23.5425V23.5974C17.8345 27.7702 19.6413 30.5704 22.4336 32.4372C22.3241 32.4921 22.2146 32.4921 22.1051 32.547C21.8861 32.6568 21.6671 32.7117 21.3934 32.8215C21.3386 32.8215 21.2838 32.8764 21.2291 32.8764C21.1743 32.9313 21.0648 32.9313 21.0101 32.9863C20.9553 32.9313 20.9006 32.8764 20.7911 32.8764C20.2436 32.547 19.5865 32.2176 18.9295 31.998C17.7797 31.6136 16.4657 31.394 15.0969 31.394H8.52662C7.59583 31.394 6.61029 31.8332 5.84377 32.4921C5.07724 33.0961 4.52972 34.0295 4.36546 34.9629L0.91608 53.5209C0.861328 53.7954 0.861328 54.0151 0.861328 54.2347C0.861328 55.1681 1.18984 56.1015 1.73736 56.8152C1.79211 56.8701 1.84687 56.925 1.90162 56.9799C2.50389 57.7486 3.43467 58.2977 4.42021 58.5173C4.69397 58.5722 4.91298 58.5722 5.13199 58.5722C6.61029 58.5722 7.81484 58.4624 8.85513 58.2428C10.0049 58.0232 10.9357 57.6388 11.757 57.0898C12.7973 56.376 13.4543 55.5524 13.9471 54.619C14.3303 53.7954 14.6041 52.9169 14.7684 51.9836L14.8779 51.5992L15.0969 51.5443L14.7136 53.4111C14.6588 53.6856 14.6588 53.9601 14.6588 54.2347C14.6588 55.223 15.0421 56.2113 15.6444 56.9799C16.2467 57.7486 17.1227 58.2977 18.1082 58.5173C18.3272 58.5722 18.601 58.5722 18.9295 58.5722C20.2436 58.5722 21.3934 58.4075 22.3789 58.133C23.4739 57.8584 24.35 57.4192 25.1712 56.925C25.2807 56.8701 25.3903 56.7603 25.4998 56.7054C26.2115 57.2545 27.0328 57.7486 27.8541 58.0781C29.0586 58.5722 30.4274 58.8467 31.7962 58.8467C33.0555 58.8467 34.3148 58.682 35.5194 58.2977C36.1217 58.133 36.6692 57.9133 37.2167 57.6937L37.2715 57.7486C37.9832 58.2428 38.8045 58.5722 39.6805 58.5722C40.8303 58.5722 41.8706 58.4624 42.8562 58.2977C43.6774 58.133 44.3892 57.9133 45.0462 57.5839C45.758 58.1879 46.6888 58.5722 47.6743 58.5722C49.0431 58.5722 50.1929 58.4624 51.1785 58.2428C52.2188 58.0232 53.0948 57.6388 53.8613 57.1447C54.0803 57.3094 54.2993 57.4192 54.5183 57.5839C55.9419 58.4075 57.6392 58.9016 59.665 58.8467C61.0338 58.7918 62.4574 58.5173 64.0452 57.9683C64.1 58.0232 64.1547 58.0232 64.2095 58.0781C64.8117 58.4075 65.5235 58.6271 66.2353 58.6271C67.3851 58.6271 68.3706 58.5173 69.3014 58.2977C69.6847 58.1879 70.0132 58.133 70.3964 58.0232C70.4512 58.0232 70.506 58.0781 70.506 58.0781C71.1082 58.4075 71.82 58.6271 72.5318 58.6271C73.9006 58.6271 75.1051 58.5173 76.1454 58.2428C77.2405 57.9683 78.1712 57.529 78.9925 56.9799C79.7591 56.4309 80.3066 55.8269 80.7446 55.1132C80.9636 55.3877 81.1826 55.6622 81.4564 55.8818C82.3872 56.8701 83.5369 57.6388 84.7962 58.133C86.0008 58.6271 87.3696 58.9016 88.7384 58.9016C90.381 58.9016 91.9688 58.6271 93.4471 58.0232C94.9254 57.4741 96.2942 56.5956 97.444 55.4975C98.5938 54.3994 99.5246 53.0817 100.127 51.5992C100.729 50.1717 101.058 48.5794 101.058 46.8773C101.058 45.5047 100.839 44.187 100.401 42.979C100.674 43.0889 100.948 43.1987 101.222 43.1987C102.317 43.1987 103.193 42.3202 103.193 41.2221C103.138 40.2338 102.262 39.3553 101.222 39.3553ZM20.1888 23.817C20.6268 20.5227 22.4884 17.8872 25.007 15.9106C28.1826 13.385 32.3985 11.8476 36.0121 11.079C36.7239 9.70632 37.4905 8.4435 38.2022 7.12577C38.9688 5.75313 39.7353 4.38049 40.4471 3.06276L40.5566 2.89804H40.7208L54.7921 1.85484C56.1062 1.74503 57.6392 1.85484 58.9533 2.40389C59.8293 2.78823 60.6506 3.39219 61.0886 4.27068C61.4719 3.99615 61.9099 3.77653 62.3479 3.61181C63.4977 3.17257 64.757 3.00785 65.9615 3.22748C67.1661 3.4471 68.2611 4.05106 69.0276 5.09426C69.3014 5.4237 69.5204 5.86294 69.6847 6.30218C70.2869 7.78463 70.1227 9.37689 69.3562 10.7495C68.6991 11.9025 67.6588 12.9457 66.1805 13.6595C66.9471 14.2086 67.3851 15.0322 67.4946 15.9106C67.6041 16.7891 67.4398 17.7225 67.0566 18.601C67.0566 18.6559 67.0018 18.6559 67.0018 18.7108C70.8345 18.4363 79.4305 19.9736 80.1423 24.3112C80.1971 24.5857 80.1971 24.8053 80.1971 25.0799C80.1971 25.1348 80.1971 25.1897 80.1971 25.1897C79.54 34.9629 47.8933 35.3472 39.8448 34.7981C36.8882 34.5785 31.7415 34.2491 27.4708 32.7666C23.0359 31.3391 19.5865 28.6487 20.1888 23.817ZM98.8128 51.16C98.2653 52.4777 97.444 53.6307 96.4584 54.619C95.4729 55.5524 94.2684 56.3211 92.9543 56.8152C91.6403 57.3094 90.2167 57.5839 88.7384 57.5839C87.5338 57.5839 86.3841 57.3643 85.3438 56.925C84.2487 56.4858 83.2632 55.8269 82.4419 54.9484C81.6206 54.1249 81.0183 53.1366 80.5256 52.0385C80.3613 52.6973 80.1423 53.3562 79.8138 53.9601C79.4305 54.6739 78.883 55.3328 78.1165 55.8818C77.4595 56.3211 76.6929 56.7054 75.7622 56.925C74.8314 57.1447 73.7911 57.2545 72.477 57.2545C71.9843 57.2545 71.5462 57.1447 71.163 56.8701C70.944 56.7603 70.725 56.5956 70.5607 56.4309C70.0679 56.6505 69.5204 56.8152 68.9729 56.9799C68.1516 57.1447 67.2756 57.2545 66.2353 57.2545C65.7425 57.2545 65.3045 57.1447 64.9212 56.925C64.7022 56.8152 64.4832 56.6505 64.2642 56.4309C62.5121 57.0898 60.9791 57.4192 59.6103 57.4741C57.8582 57.529 56.4347 57.1447 55.2301 56.4309C54.8469 56.2113 54.5184 55.9367 54.1898 55.7171C54.0803 55.6073 53.9708 55.5524 53.8613 55.4426C53.6423 55.6073 53.4233 55.8269 53.1495 55.9917C52.4925 56.4309 51.726 56.7603 50.7952 56.9799C49.9192 57.1996 48.8241 57.3094 47.6196 57.3094C46.9078 57.3094 46.2508 57.0349 45.758 56.5407C45.539 56.376 45.3748 56.1564 45.2105 55.8818C45.101 55.9916 44.9367 56.0466 44.8272 56.1564C44.1155 56.5956 43.3489 56.8701 42.4729 57.0349C41.5969 57.1996 40.6661 57.3094 39.571 57.3094C38.9688 57.3094 38.4212 57.0898 37.9832 56.7603C37.7642 56.5956 37.5452 56.376 37.381 56.1564C36.6692 56.5407 35.9026 56.8701 35.0814 57.1447C34.0411 57.4741 32.8913 57.6388 31.7415 57.6388C30.5369 57.6388 29.3872 57.4192 28.3469 56.9799C27.2518 56.5407 26.2663 55.8818 25.445 55.0034C25.445 55.0034 25.445 55.0034 25.3903 54.9484C25.3355 55.0034 25.2807 55.0583 25.2807 55.1132C25.007 55.3877 24.6785 55.6622 24.2952 55.9367C23.6382 56.376 22.8717 56.7054 21.9409 56.9799C21.0648 57.1996 20.0245 57.3643 18.8748 57.3643C18.7105 57.3643 18.4915 57.3643 18.3272 57.3094C17.6702 57.1996 17.0679 56.8152 16.6847 56.2662C16.2467 55.772 16.0276 55.1132 15.9729 54.3994C15.9729 54.2347 15.9729 54.0151 16.0276 53.8503L16.7942 49.8971C16.3014 50.0619 15.8086 50.1717 15.3159 50.2815C14.8231 50.3913 14.3303 50.4462 13.7828 50.5011L13.3996 51.709C13.2353 52.5875 13.0163 53.3562 12.6878 54.07C12.3045 54.8386 11.8117 55.4426 10.9905 55.9917C10.3334 56.4309 9.56691 56.7603 8.58137 56.925C7.65058 57.0898 6.55554 57.1996 5.13199 57.1996C4.96773 57.1996 4.80348 57.1996 4.63922 57.1447C3.9822 57.0349 3.37992 56.6505 2.94191 56.1015C2.50389 55.5524 2.23013 54.8935 2.23013 54.2347C2.23013 54.07 2.23013 53.9052 2.28488 53.7405L5.67951 35.2374C5.78901 34.6334 6.17228 34.0295 6.7198 33.5902C7.21257 33.151 7.86959 32.8764 8.52662 32.8764H15.2064C16.4657 32.8764 17.6155 33.0412 18.601 33.3706C19.1485 33.5902 19.696 33.8098 20.1888 34.0844C20.5173 34.2491 20.7911 34.4687 21.0648 34.6883C21.1196 34.6883 21.1196 34.6334 21.1743 34.6334C21.4481 34.4687 21.7219 34.304 21.9956 34.1393C22.2694 34.0295 22.5431 33.9196 22.7622 33.8098H22.8169C23.0907 33.7 23.4192 33.6451 23.7477 33.5902C24.0762 33.5353 24.35 33.5353 24.6785 33.5353C25.007 33.5353 25.2807 33.5353 25.6093 33.5902C25.9378 33.6451 26.2115 33.7 26.4853 33.8098C26.8138 33.9196 27.1423 34.0295 27.4161 34.1942C27.7446 34.3589 28.0184 34.5785 28.2374 34.7981C28.5111 35.0178 28.7301 35.2374 28.8944 35.457C29.0586 35.6766 29.2229 35.9511 29.3872 36.2257C29.5514 36.5551 29.6609 36.9394 29.7157 37.2689C29.7704 37.6532 29.7704 37.9827 29.7704 38.367C29.7704 38.4219 29.7704 38.4768 29.7704 38.5317C30.0989 38.4219 30.4274 38.2572 30.8107 38.2023C31.7415 37.9277 32.727 37.8179 33.7126 37.8179C34.9719 37.8179 36.1764 38.0376 37.2715 38.4768C38.0927 38.8062 38.8045 39.1906 39.4615 39.7396C39.6258 39.3004 39.9543 38.916 40.3376 38.6415C40.8303 38.2023 41.5421 37.9277 42.1444 37.9277C43.1847 37.9277 44.1155 38.0376 44.882 38.2023C45.7033 38.367 46.415 38.6415 47.0173 39.0259C47.0173 39.0259 47.0173 39.0259 47.0721 39.0259C47.1816 38.971 47.2911 38.916 47.4006 38.8611C47.4006 38.8611 47.4006 38.8611 47.4553 38.8611C47.7838 38.6964 48.0576 38.5317 48.3861 38.4219C48.7146 38.3121 48.9884 38.2023 49.3169 38.0925C49.6454 37.9827 49.9739 37.9277 50.3024 37.8728C50.631 37.8179 50.9595 37.8179 51.288 37.8179C52.1093 37.8179 52.8758 37.9277 53.5876 38.2023C54.2993 38.4768 54.9016 38.8611 55.4491 39.3553C55.6681 39.5749 55.8324 39.7396 55.9967 39.9592C56.7632 39.3553 57.694 38.8611 58.6795 38.4768C59.8841 38.0376 61.1981 37.763 62.6217 37.763C63.6619 37.763 64.6475 37.9277 65.5235 38.2023C65.852 38.3121 66.1258 38.4219 66.3995 38.5317C66.3995 38.4219 66.3995 38.3121 66.3995 38.2023C66.4543 37.8179 66.509 37.4336 66.6186 37.1042C66.7281 36.7747 66.8923 36.4453 67.0566 36.1159V36.061C67.2208 35.7864 67.4398 35.5119 67.7136 35.2374C67.9326 35.0178 68.2064 34.7432 68.5349 34.5236C68.8086 34.3589 69.0824 34.1942 69.3562 34.0295C69.6299 33.9196 69.9037 33.8098 70.1227 33.7H70.1774C70.4512 33.5902 70.7797 33.5353 71.1082 33.4804C71.4367 33.4255 71.7105 33.4255 72.039 33.4255C72.3675 33.4255 72.6413 33.4255 72.9698 33.4804C73.2983 33.5353 73.5721 33.5902 73.8458 33.7C74.1743 33.8098 74.5029 33.9196 74.7766 34.0844C75.1051 34.2491 75.3789 34.4687 75.5979 34.6883C75.8717 34.9079 76.0907 35.1276 76.2549 35.3472C76.4192 35.5668 76.5834 35.8413 76.7477 36.1159C76.9119 36.4453 77.0215 36.8296 77.0762 37.1591C77.131 37.3238 77.131 37.5434 77.131 37.7081C77.8427 37.763 78.445 37.8728 78.9378 37.9827C79.4853 38.1474 79.9781 38.367 80.3613 38.6415C80.8541 38.4219 81.4564 38.3121 82.1134 38.2023C82.9347 38.0925 83.8655 38.0925 85.0153 38.3121C85.289 38.367 85.5628 38.4219 85.8365 38.5866C85.946 38.6415 86.0008 38.6964 86.1103 38.7513C86.7673 38.4219 87.4243 38.2023 88.1361 38.0376C88.9574 37.8179 89.8334 37.7081 90.7095 37.7081C91.9688 37.7081 93.1733 37.9277 94.2683 38.367C95.3634 38.8062 96.3489 39.4651 97.1702 40.2887C97.9915 41.1123 98.6485 42.1006 99.0865 43.2536C99.5246 44.3517 99.7436 45.5596 99.7436 46.8224C99.6341 48.4696 99.3603 49.8971 98.8128 51.16ZM102.317 41.9908C102.207 42.2104 102.043 42.3751 101.824 42.4849C101.605 42.5947 101.386 42.6496 101.167 42.6496C100.948 42.6496 100.729 42.5947 100.51 42.4849C100.291 42.3751 100.127 42.2104 100.017 41.9908C99.9078 41.7711 99.8531 41.5515 99.8531 41.3319C99.8531 41.1123 99.9078 40.8926 100.017 40.673C100.127 40.4534 100.291 40.2887 100.51 40.1789C100.729 40.0691 100.948 40.0142 101.167 40.0142C101.386 40.0142 101.605 40.0691 101.824 40.1789C102.043 40.2887 102.207 40.4534 102.317 40.673C102.426 40.8926 102.481 41.1123 102.481 41.3319C102.481 41.5515 102.426 41.7711 102.317 41.9908Z" fill="white"/>
<path d="M97.1153 40.3986C96.294 39.575 95.3085 38.9161 94.2134 38.4769C93.1184 38.0376 91.9686 37.818 90.6546 37.818C89.7785 37.818 88.9025 37.9278 88.0812 38.1474C87.3694 38.3122 86.7124 38.5867 86.0554 38.8612C86.0006 38.8063 85.8911 38.7514 85.7816 38.6965C85.5626 38.5867 85.2889 38.4769 84.9604 38.422C83.8653 38.2573 82.8798 38.2573 82.0585 38.3122C81.4015 38.3671 80.7992 38.5318 80.3064 38.7514C79.9232 38.4769 79.4304 38.2573 78.8829 38.0925C78.3901 37.9278 77.7878 37.818 77.0761 37.818C77.0761 37.6533 77.0761 37.4337 77.0213 37.269C76.9666 36.8846 76.857 36.5552 76.6928 36.2258C76.5833 35.9512 76.419 35.6767 76.2 35.4571C76.0358 35.2375 75.8168 35.0178 75.543 34.7982C75.2692 34.5786 74.9955 34.359 74.7217 34.1942C74.3932 34.0295 74.1194 33.8648 73.7909 33.8099C73.5172 33.7001 73.2434 33.6452 72.9149 33.5903C72.5864 33.5354 72.3126 33.5354 71.9841 33.5354C71.6556 33.5354 71.3271 33.5354 71.0533 33.5903C70.7248 33.6452 70.451 33.7001 70.1225 33.8099H70.0678C69.794 33.9197 69.5203 34.0295 69.3013 34.1393C69.0275 34.3041 68.7537 34.4688 68.48 34.6335C68.1515 34.8531 67.8777 35.0727 67.6587 35.3473C67.3849 35.6218 67.1659 35.8963 67.0017 36.1708C67.0017 36.1708 67.0017 36.1708 67.0017 36.2258C66.8374 36.5552 66.6732 36.8846 66.5637 37.214C66.4542 37.5435 66.3446 37.9278 66.3446 38.3122C66.3446 38.422 66.3446 38.5318 66.3446 38.6416C66.0709 38.5318 65.7971 38.3671 65.4686 38.3122C64.5926 38.0376 63.607 37.8729 62.5668 37.8729C61.0884 37.8729 59.7744 38.1474 58.6246 38.5867C57.6391 38.971 56.763 39.4652 55.9418 40.0691C55.7775 39.8495 55.6132 39.6299 55.3942 39.4652C54.8467 38.971 54.2444 38.5867 53.5327 38.3122C52.8209 38.0376 52.0544 37.9278 51.2331 37.9278C50.9046 37.9278 50.576 37.9278 50.2475 37.9827C49.919 38.0376 49.5905 38.0925 49.262 38.2023C48.9335 38.3122 48.605 38.422 48.3312 38.5318C48.0575 38.6416 47.7289 38.8063 47.4004 38.971H47.3457C47.2362 39.0259 47.1267 39.0808 47.0172 39.1357C47.0172 39.1357 47.0172 39.1357 46.9624 39.1357C46.3601 38.7514 45.6484 38.4769 44.8271 38.3122C44.0058 38.1474 43.1298 38.0376 42.0895 38.0376C41.4872 38.0376 40.8302 38.3122 40.2827 38.7514C39.8994 39.0808 39.6256 39.4652 39.4066 39.8495C38.7496 39.3554 38.0378 38.9161 37.2165 38.5867C36.1215 38.1474 34.9717 37.9278 33.6577 37.9278C32.6721 37.9278 31.6866 38.0925 30.7558 38.3122C30.4273 38.422 30.044 38.5318 29.7155 38.6416C29.7155 38.5867 29.7155 38.5318 29.7155 38.4769C29.7703 38.0925 29.7703 37.7082 29.6608 37.3788C29.606 36.9944 29.4965 36.665 29.3323 36.3356C29.2227 36.061 29.0585 35.7865 28.8395 35.5669C28.6752 35.3473 28.4562 35.1276 28.1825 34.908C27.9087 34.6884 27.6349 34.4688 27.3612 34.3041C27.0327 34.1393 26.7589 33.9746 26.4304 33.9197C26.1566 33.8099 25.8829 33.755 25.5544 33.7001C25.2258 33.6452 24.9521 33.6452 24.6236 33.6452C24.2951 33.6452 23.9665 33.6452 23.6928 33.7001C23.3643 33.755 23.0905 33.8099 22.762 33.9197H22.7073C22.4335 34.0295 22.1597 34.1393 21.9407 34.2492C21.667 34.4139 21.3932 34.5786 21.1194 34.7433C21.0647 34.7433 21.0647 34.7982 21.0099 34.7982C20.7362 34.5786 20.4624 34.359 20.1339 34.1942C19.6411 33.9197 19.1484 33.6452 18.5461 33.4805C17.5606 33.151 16.4108 32.9863 15.1515 32.9863H8.52647C7.9242 32.9863 7.26717 33.2609 6.71965 33.7001C6.22688 34.1393 5.78886 34.7433 5.67936 35.3473L2.28473 53.7406C2.22998 53.9053 2.22998 54.07 2.22998 54.2347C2.22998 54.9485 2.50374 55.6074 2.94176 56.1015C3.37977 56.6506 3.98205 57.0349 4.63907 57.1447C4.80333 57.1996 4.96758 57.1996 5.13184 57.1996C6.50064 57.1996 7.65043 57.0898 8.58122 56.9251C9.56676 56.7055 10.3333 56.431 10.9903 55.9917C11.8116 55.4427 12.3591 54.7838 12.6876 54.07C13.0161 53.3563 13.2351 52.5876 13.3994 51.7091L13.8374 50.3914C14.3302 50.3365 14.8777 50.2816 15.3705 50.1717C15.8632 50.0619 16.4108 49.9521 16.8488 49.7874L16.0823 53.7406C16.0275 53.9053 16.0275 54.1249 16.0275 54.2897C16.0275 55.0034 16.3013 55.6074 16.7393 56.1564C17.1773 56.6506 17.7248 57.0349 18.3818 57.1996C18.5461 57.2546 18.7651 57.2546 18.9294 57.2546C20.1339 57.2546 21.1194 57.0898 21.9955 56.8702C22.9263 56.6506 23.6928 56.2663 24.3498 55.827C24.7331 55.5525 25.0068 55.3329 25.3354 55.0034C25.3901 54.9485 25.4449 54.8936 25.4449 54.8387C25.4449 54.8387 25.4449 54.8387 25.4996 54.8936C26.3209 55.7172 27.3064 56.3761 28.4015 56.8702C29.4418 57.3095 30.5915 57.5291 31.7961 57.5291C32.9459 57.5291 34.0957 57.3644 35.136 57.0349C35.9573 56.8153 36.7238 56.4859 37.4356 56.0466C37.5998 56.2663 37.8188 56.4859 38.0378 56.6506C38.4758 56.98 39.0234 57.1996 39.6256 57.1996C40.7207 57.1996 41.6515 57.1447 42.5275 56.9251C43.4035 56.7604 44.1701 56.431 44.8818 56.0466C45.0461 55.9368 45.1556 55.8819 45.2651 55.7721C45.4294 55.9917 45.5936 56.2113 45.8126 56.431C46.3054 56.8702 46.9624 57.1996 47.6742 57.1996C48.9335 57.1996 49.9738 57.0898 50.8498 56.8702C51.7806 56.6506 52.5471 56.3212 53.2042 55.8819C53.4779 55.7172 53.6969 55.4976 53.9159 55.3329C54.0254 55.4427 54.1349 55.4976 54.2444 55.6074C54.573 55.8819 54.9015 56.1015 55.2847 56.3212C56.4893 57.0349 57.9676 57.4193 59.6649 57.3644C61.0337 57.3095 62.6215 56.98 64.3188 56.3212C64.4831 56.4859 64.7021 56.6506 64.9758 56.8153C65.3591 57.0349 65.8519 57.1447 66.2899 57.1447C67.3302 57.1447 68.261 57.0349 69.0275 56.8702C69.6298 56.7604 70.1225 56.5408 70.6153 56.3212C70.7796 56.4859 70.9986 56.6506 71.2176 56.7604C71.6008 56.98 72.0936 57.1447 72.5316 57.1447C73.7909 57.1447 74.886 57.0349 75.8168 56.8153C76.7475 56.5957 77.5141 56.2113 78.1711 55.7721C78.9376 55.223 79.4851 54.5642 79.8684 53.8504C80.1969 53.2465 80.4159 52.6425 80.5802 51.9287C81.0182 53.0268 81.6752 54.0151 82.4965 54.8387C83.3178 55.6623 84.3033 56.3212 85.3984 56.8153C86.4387 57.2546 87.5884 57.4742 88.793 57.4742C90.2713 57.4742 91.6949 57.1996 93.0089 56.7055C94.323 56.2113 95.5275 55.4427 96.513 54.5093C97.4986 53.5759 98.3199 52.4229 98.8674 51.0502C99.4149 49.7874 99.6887 48.4148 99.6887 46.8774C99.6887 45.5597 99.4697 44.3518 99.0316 43.3086C98.5389 42.2104 97.8818 41.2222 97.1153 40.3986ZM95.9655 54.0151C94.104 55.7721 91.5306 56.7604 88.7382 56.7604C86.4934 56.7604 84.4676 55.827 82.9893 54.3446C81.8942 53.2465 81.1277 51.764 80.7992 50.1717C80.6897 49.6227 80.6349 49.0736 80.6349 48.4697C80.6349 48.305 80.6349 48.0853 80.6349 47.9206C80.6349 47.9206 80.6349 47.9206 80.6349 47.9755C80.5254 48.2501 80.4159 48.5795 80.3612 49.0187L79.9232 51.4346C79.5947 52.9719 79.1019 54.1798 77.7878 55.1681C77.5141 55.3878 77.1856 55.5525 76.857 55.7172C75.8168 56.2113 74.448 56.431 72.6411 56.431C71.9294 56.431 71.2723 56.0466 70.8891 55.4427C69.794 56.0466 68.3157 56.431 66.3446 56.431C65.6329 56.431 64.9758 56.0466 64.5926 55.4427C60.7599 57.0898 57.7486 56.9251 55.668 55.6623C55.011 55.278 54.4087 54.7838 53.9159 54.1798C53.6422 54.5642 53.2589 54.8936 52.8209 55.223C51.6711 55.9917 50.0833 56.431 47.6742 56.3761C46.6339 56.3761 45.7579 55.4976 45.5936 54.4544C45.2651 54.7838 44.9366 55.0583 44.4986 55.3329C43.294 56.0466 41.7062 56.3761 39.6256 56.3761C38.9686 56.3761 38.3663 56.0466 37.9831 55.4976C37.8736 55.3329 37.7641 55.1681 37.6546 54.9485C35.9572 56.0466 33.9314 56.6506 31.7413 56.6506C29.4965 56.6506 27.4707 55.7172 25.9924 54.2347C25.7734 54.0151 25.5544 53.7955 25.3901 53.521C25.0068 54.1249 24.5688 54.6191 23.9118 55.0583C22.762 55.827 21.1742 56.3212 18.9294 56.3212C17.6701 56.3212 16.575 55.0034 16.8488 53.7406L17.8891 48.4148C17.5606 48.5795 17.232 48.6893 16.9035 48.7991C16.0823 49.0736 15.261 49.2933 14.3849 49.4031C14.1112 49.458 13.7827 49.458 13.4542 49.5129C13.3994 49.5129 13.3447 49.5129 13.2899 49.5129L12.6329 51.3797C12.3044 53.0817 11.9211 54.2897 10.4975 55.223C9.34775 55.9917 7.75994 56.3212 5.07709 56.3212C3.98205 56.3212 3.05126 55.3329 2.99651 54.2347C2.99651 54.07 2.99651 53.9053 3.05126 53.7406L6.44589 35.2375C6.50064 34.908 6.6649 34.5786 6.93866 34.3041C7.04816 34.1942 7.10291 34.1393 7.21242 34.0295C7.59568 33.7001 8.08845 33.4805 8.52647 33.4805H15.2062C16.356 33.4805 17.4511 33.6452 18.3818 33.9746C19.4221 34.3041 20.2982 34.8531 21.0099 35.5669C21.0099 35.5669 21.0099 35.5669 21.0647 35.6218C21.2289 35.4571 21.448 35.2924 21.6122 35.1825C22.105 34.8531 22.5977 34.5786 23.0905 34.4139C23.638 34.2492 24.1856 34.1393 24.7331 34.1393C25.3354 34.1393 25.8281 34.1942 26.3209 34.359C26.9232 34.5237 27.4159 34.7982 27.8539 35.1825C28.292 35.5669 28.5657 35.9512 28.7847 36.3905C29.0585 36.9395 29.168 37.5435 29.0585 38.1474C29.0037 38.8063 28.7847 39.3554 28.511 39.9044C30.044 38.971 31.8508 38.422 33.7124 38.422C33.9862 38.422 34.3147 38.422 34.5884 38.4769C36.6143 38.6416 38.3116 39.4652 39.6256 40.7829C39.6804 40.8378 39.7899 40.9476 39.8446 41.0025L39.9542 40.2339C39.9542 40.124 40.0089 40.0142 40.0637 39.9044C40.3922 39.1357 41.2682 38.4769 42.0347 38.4769C44.0058 38.4769 45.4841 38.8063 46.5244 39.4652C46.6887 39.575 46.7982 39.6299 46.9077 39.7397C47.1267 39.575 47.3457 39.4652 47.5647 39.3554C48.167 39.0259 48.7145 38.8063 49.3168 38.6416C49.7548 38.5318 50.2475 38.422 50.6856 38.422C50.8498 38.422 50.9593 38.422 51.1236 38.422C52.6566 38.422 53.8612 38.8612 54.7372 39.7397C55.1205 40.124 55.3942 40.5084 55.6132 40.9476C56.0513 40.5633 56.4893 40.2339 56.982 39.9044C58.4604 38.971 60.3219 38.422 62.4573 38.422C62.731 38.422 62.95 38.422 63.169 38.4769C64.8116 38.6416 66.2351 39.2456 67.2754 40.0691C67.2754 40.0142 67.2207 39.9593 67.2207 39.9044C67.0017 39.3554 66.8922 38.8063 67.0017 38.2023C67.0564 37.5435 67.2754 36.9395 67.6039 36.3905C67.9325 35.8963 68.3157 35.4571 68.8632 35.0727C69.356 34.7433 69.8488 34.4688 70.3415 34.3041C70.8891 34.1393 71.4366 34.0295 71.9841 34.0295C72.5864 34.0295 73.0792 34.0844 73.5719 34.2492C74.1742 34.4139 74.667 34.6884 75.105 35.0727C75.543 35.4571 75.8168 35.8414 76.0358 36.2807C76.3095 36.8297 76.419 37.4337 76.3095 38.0376C76.3095 38.1474 76.3095 38.2573 76.2548 38.3122C76.9666 38.3122 77.6236 38.3671 78.1711 38.4769C78.3354 38.5318 78.4996 38.5318 78.6639 38.5867C79.3209 38.7514 79.8137 39.0259 80.1422 39.4103C81.2372 38.8612 82.7155 38.6416 84.7961 38.971C85.2341 39.0259 85.5626 39.2456 85.8911 39.5201C86.6029 39.1357 87.3694 38.8612 88.136 38.6416C88.9025 38.422 89.7238 38.3122 90.5451 38.3122C92.8994 38.3122 94.98 39.1906 96.4583 40.6731C97.9366 42.1555 98.7579 44.242 98.7579 46.6578C98.8674 49.8423 97.7723 52.2582 95.9655 54.0151Z" fill="#D80212"/>
<path d="M96.5679 40.9475C95.0896 39.4651 93.0637 38.5866 90.6546 38.5866C89.8334 38.5866 89.0121 38.6964 88.2456 38.916C87.479 39.1356 86.7125 39.4101 86.0007 39.7945C85.727 39.52 85.3437 39.3003 84.9057 39.2454C82.8251 38.916 81.3468 39.1905 80.2517 39.6847C79.8685 39.3552 79.3757 39.0807 78.7734 38.8611C78.6092 38.8062 78.4449 38.7513 78.2807 38.7513C77.7332 38.6415 77.1309 38.5866 76.3644 38.5866C76.3644 38.4768 76.4191 38.4218 76.4191 38.312C76.4739 37.7081 76.3643 37.1041 76.1453 36.5551C75.9263 36.1158 75.5978 35.7315 75.2146 35.3471C74.7765 34.9628 74.2838 34.6883 73.6815 34.5236C73.1887 34.3588 72.6412 34.3039 72.0937 34.3039C71.5462 34.3039 70.9986 34.4138 70.4511 34.5785C69.9584 34.7432 69.4108 35.0177 68.9728 35.3471C68.4253 35.7315 67.9873 36.1707 67.7135 36.6649C67.385 37.2139 67.166 37.8179 67.1113 38.4768C67.0565 39.0807 67.1113 39.6298 67.3303 40.1788C67.3303 40.2337 67.385 40.2886 67.385 40.3435C66.3447 39.4651 64.9212 38.8611 63.2786 38.7513C63.0596 38.7513 62.7858 38.6964 62.5668 38.6964C60.4315 38.6964 58.6247 39.2454 57.0916 40.1788C56.5989 40.5083 56.1061 40.8377 55.7228 41.222C55.5038 40.7828 55.2301 40.3435 54.8468 40.0141C53.9708 39.1356 52.7662 38.6964 51.2332 38.6964C51.0689 38.6964 50.9594 38.6964 50.7951 38.6964C50.3571 38.7513 49.8643 38.8062 49.4263 38.916C48.8788 39.0807 48.2765 39.3003 47.6743 39.6298C47.4553 39.7396 47.2363 39.9043 47.0172 40.0141C46.9077 39.9043 46.7435 39.7945 46.634 39.7396C45.5937 39.0807 44.1154 38.7513 42.1443 38.7513C41.3778 38.7513 40.5017 39.4101 40.1732 40.1788C40.1185 40.2886 40.1185 40.3984 40.0637 40.5083L39.9542 41.2769C39.8995 41.1671 39.79 41.1122 39.7352 41.0573C38.4212 39.7396 36.7239 38.916 34.698 38.7513C34.4243 38.7513 34.0958 38.6964 33.822 38.6964C31.9604 38.6964 30.1536 39.2454 28.6206 40.1788C28.8943 39.6298 29.1133 39.0807 29.1681 38.4219C29.2228 37.8179 29.1133 37.2139 28.8943 36.6649C28.6753 36.2256 28.3468 35.8413 27.9635 35.457C27.5255 35.0726 27.0327 34.7981 26.4305 34.6334C25.9377 34.4687 25.3902 34.4137 24.8427 34.4137C24.2951 34.4137 23.7476 34.5236 23.2001 34.6883C22.7073 34.853 22.1598 35.1275 21.7218 35.457C21.5028 35.6217 21.3385 35.7315 21.1743 35.8962C21.1743 35.8962 21.1743 35.8962 21.1195 35.8413C20.4077 35.1275 19.5317 34.5785 18.4914 34.249C17.5606 33.9196 16.5203 33.7549 15.3158 33.7549H8.52654C8.08852 33.7549 7.59576 33.9745 7.21249 34.3039C7.10299 34.4138 7.04823 34.4687 6.93873 34.5785C6.66497 34.853 6.50071 35.1824 6.44596 35.5119L3.05133 53.9052C2.99658 54.0699 2.99658 54.2346 2.99658 54.3993C3.05133 55.4975 3.98212 56.4858 5.07716 56.4858C7.76001 56.4858 9.34782 56.1563 10.4976 55.3876C11.8664 54.4542 12.3044 53.2463 12.6329 51.5443L13.29 49.6775C13.3447 49.6775 13.3995 49.6775 13.4542 49.6775C13.7827 49.6775 14.0565 49.6226 14.385 49.5677C15.261 49.4578 16.1371 49.2382 16.9036 48.9637C17.2321 48.8539 17.5606 48.6892 17.8891 48.5794L16.8489 53.9052C16.5751 55.168 17.6701 56.4858 18.9294 56.4858C21.1743 56.4858 22.7621 55.9916 23.9119 55.2229C24.5689 54.7837 25.0069 54.2895 25.3902 53.6856C25.5544 53.9052 25.7734 54.1797 25.9925 54.3993C27.4708 55.8818 29.4966 56.8152 31.7414 56.8152C33.9315 56.8152 35.9573 56.2112 37.6546 55.1131C37.7094 55.3327 37.8189 55.4975 37.9832 55.6622C38.3664 56.1563 38.9687 56.5407 39.6257 56.5407C41.7063 56.5407 43.2393 56.2661 44.4986 55.4975C44.9367 55.2229 45.2652 54.9484 45.5937 54.619C45.7579 55.6073 46.634 56.5407 47.6743 56.5407C50.0834 56.5407 51.6712 56.1563 52.821 55.3876C53.259 55.0582 53.6422 54.7288 53.916 54.3444C54.4088 54.8935 54.9563 55.4425 55.6681 55.8269C57.7486 57.0348 60.7053 57.2544 64.5927 55.6073C64.9759 56.1563 65.6329 56.5956 66.3447 56.5956C68.3158 56.5956 69.7941 56.2112 70.8891 55.6073C71.2724 56.2112 71.9294 56.5956 72.6412 56.5956C74.448 56.5956 75.8168 56.321 76.8571 55.8818C77.1856 55.7171 77.5141 55.5524 77.7879 55.3327C79.102 54.3993 79.6495 53.1365 79.9232 51.5992L80.3613 49.1833C80.416 48.7441 80.5255 48.4146 80.635 48.1401C80.635 48.1401 80.635 48.1401 80.635 48.0852C80.635 48.2499 80.635 48.4696 80.635 48.6343C80.635 49.2382 80.6898 49.7873 80.7993 50.3363C81.1278 51.9835 81.8943 53.411 82.9893 54.5092C84.4677 55.9916 86.4935 56.925 88.7383 56.925C91.5307 56.925 94.104 55.9367 95.9656 54.1797C97.7724 52.4777 98.8675 50.0618 98.8675 47.1518C98.8675 44.5164 97.9914 42.4299 96.5679 40.9475ZM70.1226 37.1041C70.7249 36.7198 71.3272 36.5002 72.0389 36.5002C72.8055 36.5002 73.353 36.6649 73.791 37.0492C74.1743 37.3786 74.3385 37.763 74.3385 38.1473C74.2838 38.8611 73.9005 39.4101 73.2982 39.7945C72.696 40.1788 72.0389 40.3984 71.2724 40.3984C70.5606 40.3984 70.0679 40.2337 69.6846 39.8494C69.3013 39.52 69.1371 39.0807 69.1918 38.6415C69.1918 37.9826 69.5203 37.4885 70.1226 37.1041ZM22.7621 37.1041C23.3644 36.7198 23.9666 36.5002 24.6784 36.5002C25.4449 36.5002 25.9925 36.6649 26.4305 37.0492C26.8137 37.3786 26.978 37.763 26.978 38.1473C26.9232 38.8611 26.54 39.4101 25.9377 39.7945C25.3354 40.1788 24.6784 40.3984 23.9119 40.3984C23.2001 40.3984 22.7073 40.2337 22.3241 39.8494C21.9408 39.52 21.7765 39.0807 21.8313 38.6415C21.886 37.9826 22.2146 37.4885 22.7621 37.1041ZM13.2352 47.4813L11.2094 47.5911C10.9904 48.7441 10.7714 49.952 10.5524 51.105C10.1144 53.411 9.56683 54.2895 5.07716 54.2895L8.52654 35.7864H15.2063C17.1226 35.7864 18.5462 36.2805 19.477 37.2139C20.4077 38.2022 20.9005 39.3552 20.9005 40.673C20.9005 42.7045 20.134 44.2967 18.5462 45.5596C17.1774 46.7126 15.4253 47.3165 13.2352 47.4813ZM24.1309 51.105C23.8024 53.0267 22.5431 54.2895 18.9294 54.2895L21.0648 43.2535C21.448 41.222 23.5834 40.8926 25.9925 41.0573C25.3902 44.4615 24.7332 47.7009 24.1309 51.105ZM31.7962 54.619C28.4563 54.619 25.7734 51.9286 25.7734 48.4696C25.7734 44.132 29.5513 40.7279 33.7125 40.7279C37.3261 40.7279 39.8447 43.1986 39.8447 46.9322C39.79 51.6541 36.1763 54.619 31.7962 54.619ZM53.8613 45.7792C53.5327 47.5911 53.2042 49.348 52.8757 51.1599C52.5472 53.1914 51.5069 54.3444 47.6195 54.2895L49.0978 45.9988C49.1526 45.8341 49.1526 45.6145 49.1526 45.3399C49.0978 44.8458 48.9883 44.5164 48.8241 44.3516C48.6598 44.1869 48.4408 44.0771 48.2218 44.0771C47.4553 44.0771 46.7982 44.5164 46.3602 45.3948C45.8675 46.2733 45.5389 47.2616 45.3199 48.4146C45.1557 49.2931 44.9914 50.1167 44.8819 50.9952C44.4986 53.5209 43.0203 54.3444 39.6257 54.3444L42.0348 40.8926C45.2104 40.8926 46.5792 41.7711 46.196 43.5281L46.2507 43.583C46.9625 42.7045 47.729 42.0456 48.6598 41.5515C49.5358 41.0573 50.4119 40.8377 51.2332 40.8377C53.1495 40.8377 54.0803 41.7711 54.0803 43.6928C54.0803 44.1869 54.0803 44.5713 54.0255 44.7909C54.0255 44.9556 53.9708 45.285 53.8613 45.7792ZM62.5121 40.7828C67.166 40.7828 69.1371 45.285 64.7022 47.4813C63.1144 48.2499 61.2528 48.6892 59.227 48.6892C59.227 48.9088 59.1722 49.0735 59.227 49.1833C59.3912 53.6856 64.9212 48.3597 65.7425 52.5326C50.9594 60.8782 51.1784 40.7828 62.5121 40.7828ZM66.2352 54.2895L68.3706 43.2535C68.7538 41.222 70.8891 40.8926 73.2982 41.0573C72.696 44.4615 72.0389 47.7009 71.4367 51.0501C71.1629 53.0267 69.8489 54.2346 66.2352 54.2895ZM79.3757 46.0537C78.8282 46.5479 78.4449 47.3714 78.2259 48.6343L77.7879 51.0501C77.4046 53.0816 76.4739 54.2895 72.5317 54.2895L74.9408 40.8377C79.8137 40.3984 79.2662 42.2103 79.0472 43.8575C79.4852 43.3084 80.3613 40.673 84.5772 41.3318L83.4274 43.6928C82.2776 45.7792 82.2228 45.1752 80.9088 45.3399C80.3613 45.4498 79.8685 45.6694 79.3757 46.0537ZM88.7383 54.619C85.3984 54.619 82.7156 51.9286 82.7156 48.4696C82.7156 44.132 86.4935 40.7279 90.6546 40.7279C94.2683 40.7279 96.7869 43.1986 96.7869 46.9322C96.7321 51.6541 93.1185 54.619 88.7383 54.619Z" fill="white"/>
<path d="M33.6032 43.1436C30.4276 43.1436 29.6063 52.2579 32.1796 52.2579C35.4647 52.2579 35.629 43.1436 33.6032 43.1436Z" fill="white"/>
<path d="M62.1834 43.0342C60.4313 43.0342 59.7743 45.0108 59.4458 46.4383C60.8146 46.4383 61.8001 46.2736 62.4572 45.9442C63.826 45.2853 63.826 43.0342 62.1834 43.0342Z" fill="white"/>
<path d="M14.0564 38.9707H12.7971L11.7568 44.5162C13.9469 44.5162 15.9727 43.7475 15.9727 41.2767C15.9727 40.6728 15.8085 40.1237 15.4252 39.6845C15.0967 39.1903 14.6587 38.9707 14.0564 38.9707Z" fill="white"/>
<path d="M90.5451 43.1436C87.3694 43.1436 86.5482 52.2579 89.1215 52.2579C92.4614 52.2579 92.5709 43.1436 90.5451 43.1436Z" fill="white"/>
<path d="M20.8458 23.9271C20.2983 28.3196 23.5287 30.7903 27.6351 32.163C31.851 33.5905 36.9429 33.9749 39.8448 34.1396C47.7291 34.6886 78.8283 34.4141 79.4853 25.19C79.4853 25.1351 79.4853 25.0802 79.4853 25.0802C79.4853 24.8605 79.4853 24.6409 79.4305 24.4762C78.7188 20.3034 69.5752 18.9857 66.3995 19.5347L65.5783 19.6445L66.0163 18.9857C66.1805 18.766 66.29 18.5464 66.3995 18.3268C66.7828 17.5581 66.8923 16.7894 66.7828 16.0208C66.6733 15.307 66.3448 14.6481 65.6878 14.2089C65.5783 14.0991 65.414 14.0442 65.2497 13.9343L64.538 13.6049L65.2497 13.3304C66.8923 12.6715 68.0421 11.6283 68.6991 10.4204C69.3562 9.21247 69.4657 7.83984 68.9729 6.5221C68.8086 6.13777 68.6444 5.80833 68.4254 5.4789C67.7683 4.60041 66.8376 4.10626 65.7973 3.88664C64.757 3.72192 63.6072 3.83174 62.5669 4.27098C62.0741 4.4906 61.5814 4.76513 61.1433 5.09456L60.8148 5.36909L60.6506 4.98475C60.2673 4.05136 59.5555 3.4474 58.6795 3.06306C57.5297 2.56891 56.0514 2.514 54.8469 2.56891L40.9398 3.61211C40.2281 4.98475 39.5163 6.24758 38.7497 7.5104C37.9832 8.88304 37.2167 10.2557 36.5049 11.5734L36.4502 11.7381L36.2859 11.793C32.727 12.5068 28.5659 13.9893 25.3902 16.5149C23.0359 18.3817 21.2838 20.8524 20.8458 23.9271ZM60.2673 8.77323C60.5958 6.79663 62.6216 5.20437 64.757 5.14947C66.8923 5.09456 68.3159 6.68682 67.9873 8.66342C67.6588 10.64 65.633 12.2323 63.4977 12.2872C61.4171 12.2872 59.9388 10.7498 60.2673 8.77323ZM41.7611 4.87494L54.9564 3.88664C58.351 3.61211 60.8148 4.82003 59.0628 8.33399L56.8179 12.7264C49.2074 14.5383 45.3747 16.1855 41.9801 17.1738C43.4584 13.3853 47.4006 9.10266 38.8593 9.98115C39.352 9.04776 41.2136 5.86324 41.7611 4.87494ZM37.819 13.1657C43.1299 12.0127 40.009 16.9541 39.1878 19.8641C43.6227 18.6562 52.5473 14.0991 60.1031 14.0442C60.7053 14.0442 61.2528 14.0991 61.6909 14.154C67.7136 14.154 64.4832 18.6013 63.5524 20.9622C67.6588 20.0289 72.5865 20.6328 74.7219 22.1153C77.0214 22.829 78.5545 24.037 78.1165 25.5194C75.9812 32.8767 32.289 36.1162 24.8975 29.0883C23.9119 28.5941 23.1454 28.0451 22.7621 27.3862C20.5173 23.7624 23.7477 16.9541 32.3438 14.154C35.1909 13.3304 36.8882 13.0559 37.819 13.1657Z" fill="white"/>
<path d="M39.8451 34.8536C47.8936 35.4027 79.5403 35.0183 80.1974 25.2452C80.1974 25.1903 80.1974 25.1903 80.1974 25.1354C80.1974 24.8608 80.1973 24.6412 80.1426 24.3667C79.4308 20.0291 70.8895 18.4918 67.0021 18.7663C67.0021 18.7114 67.0569 18.7114 67.0569 18.6565C67.4949 17.778 67.6591 16.8446 67.4949 15.9661C67.3854 15.0877 66.9473 14.319 66.1808 13.715C67.6591 13.0012 68.7542 11.958 69.3564 10.805C70.123 9.43239 70.2325 7.84013 69.685 6.35768C69.5207 5.91844 69.3017 5.47919 69.0279 5.14976C68.2614 4.10656 67.1664 3.5026 65.9618 3.28297C64.812 3.06335 63.498 3.22807 62.3482 3.66731C61.9102 3.83203 61.4721 4.05165 61.0889 4.32618C60.5961 3.39278 59.8296 2.78882 58.9535 2.45939C57.6395 1.91034 56.1064 1.80053 54.7924 1.91034L40.7211 2.95354H40.5569L40.4474 3.11826C39.7356 4.43599 38.969 5.80863 38.2025 7.18126C37.4907 8.49899 36.7242 9.76182 36.0124 11.1345C32.3988 11.8482 28.1829 13.4405 25.0073 15.9661C22.4887 17.9427 20.6271 20.5782 20.1891 23.8725C19.5868 28.7042 23.0362 31.3397 27.4164 32.877C31.687 34.3046 36.8337 34.634 39.8451 34.8536ZM36.4505 11.7384L36.5052 11.5737C37.217 10.256 37.9835 8.88333 38.75 7.5107C39.4618 6.24787 40.1736 4.93014 40.9401 3.61241L54.8471 2.62411C56.0517 2.5143 57.53 2.62411 58.6798 3.11826C59.5558 3.5026 60.2676 4.10656 60.6509 5.03995L60.8151 5.42429L61.1436 5.14976C61.5816 4.82033 62.0744 4.5458 62.5672 4.32618C63.6075 3.88693 64.7573 3.77712 65.7976 3.94184C66.8378 4.10656 67.7686 4.65561 68.4257 5.5341C68.6447 5.86353 68.8637 6.19296 68.9732 6.5773C69.4659 7.89503 69.3564 9.26767 68.6994 10.4756C68.0424 11.6835 66.8926 12.7267 65.25 13.3856L64.5383 13.6601L65.25 13.9895C65.4143 14.0444 65.5238 14.1543 65.6881 14.2641C66.3451 14.7033 66.6736 15.3622 66.7831 16.076C66.8926 16.7897 66.7283 17.6133 66.3998 18.382C66.2903 18.6016 66.1808 18.8212 66.0166 19.0408L65.5785 19.6997L66.3998 19.5899C69.5755 19.0408 78.7738 20.3586 79.4308 24.5314C79.4856 24.751 79.4856 24.9157 79.4856 25.1354C79.4856 25.1354 79.4856 25.1903 79.4856 25.2452C78.8833 34.4693 47.7841 34.7438 39.8451 34.1948C36.8885 33.9751 31.7965 33.6457 27.6354 32.2182C23.529 30.7906 20.2986 28.3748 20.8461 23.9823C21.2294 20.9076 23.0362 18.4369 25.3905 16.5152C28.5114 14.0444 32.7273 12.5071 36.2862 11.7933L36.4505 11.7384Z" fill="#D80212"/>
<path d="M63.0051 21.1813C63.1693 21.1264 63.3884 21.0715 63.5526 21.0715C64.4286 18.7105 67.7138 14.2083 61.691 14.2632C67.5495 15.1966 56.8181 22.8834 63.0051 21.1813Z" fill="#D80212"/>
<path d="M37.1072 20.1379C37.6 20.1929 38.3118 20.083 39.1878 19.8634C40.0091 16.8985 43.1299 12.0119 37.819 13.165C41.3779 13.714 34.8076 19.7536 37.1072 20.1379Z" fill="#D80212"/>
<path d="M75.5431 24.5855C71.9295 31.1193 34.9171 34.0842 24.8975 29.1976C32.289 36.1706 75.9811 32.9861 78.1165 25.6287C78.5545 24.1463 77.0214 22.8835 74.7218 22.2246C75.7074 22.8286 76.0906 23.6522 75.5431 24.5855Z" fill="#D80212"/>
<path d="M22.762 27.4954C23.1453 28.1543 23.9118 28.7033 24.8974 29.1975C34.917 34.0841 71.9294 31.1741 75.543 24.5854C76.0358 23.652 75.6525 22.8285 74.7217 22.1696C72.5864 20.6871 67.6587 20.0832 63.5523 21.0166C63.3881 21.0715 63.1691 21.1264 63.0048 21.1264C56.8178 22.8285 67.4945 15.1417 61.6907 14.1534C61.2527 14.0985 60.76 14.0436 60.1029 14.0436C52.5472 14.1534 43.6226 18.7105 39.1877 19.8636C38.3116 20.0832 37.5998 20.193 37.1071 20.1381C34.8075 19.7537 41.323 13.6592 37.8188 13.1651C36.8881 13.0004 35.136 13.2749 32.3436 14.2083C23.7476 17.0085 20.5172 23.8717 22.762 27.4954Z" fill="#FFC500"/>
<path d="M41.9798 17.228C45.3744 16.2397 49.207 14.5925 56.8176 12.7806L59.0624 8.38816C60.8692 4.87421 58.3506 3.66629 54.956 3.94082L41.7607 4.92912C41.2132 5.91742 39.3517 9.10194 38.8589 10.0902C47.4002 9.15684 43.4581 13.4395 41.9798 17.228Z" fill="#D80212"/>
<path d="M63.5527 12.2871C65.688 12.2322 67.7138 10.64 68.0423 8.66337C68.3708 6.68677 66.9473 5.14941 64.812 5.14941C62.6766 5.20432 60.6508 6.79658 60.3223 8.77318C59.939 10.7498 61.4173 12.2871 63.5527 12.2871Z" fill="#D80212"/>
<path d="M90.6549 40.7832C86.4937 40.7832 82.7158 44.1324 82.7158 48.5249C82.7158 51.9839 85.3439 54.6743 88.7385 54.6743C93.1187 54.6743 96.7871 51.7094 96.7871 46.9875C96.7324 43.254 94.2685 40.7832 90.6549 40.7832ZM89.1218 52.2584C86.5485 52.2584 87.3697 43.1441 90.5454 43.1441C92.5712 43.1441 92.4617 52.2584 89.1218 52.2584Z" fill="#D80212"/>
<path d="M54.0805 43.5826C54.0805 41.7158 53.1497 40.7275 51.2334 40.7275C50.4121 40.7275 49.5361 40.9472 48.6601 41.4413C47.784 41.9355 46.9628 42.5943 46.251 43.4728H46.1962C46.5795 41.7158 45.2107 40.8923 42.0351 40.8373L39.626 54.2892C43.0206 54.2892 44.5537 53.5205 44.8822 50.94C45.0464 50.0615 45.2107 49.2379 45.3202 48.3594C45.5392 47.2064 45.8677 46.2181 46.3605 45.3396C46.8532 44.4611 47.4555 44.0219 48.2221 44.0219C48.4411 44.0219 48.6601 44.1317 48.8243 44.2964C48.9886 44.4611 49.0981 44.7905 49.1528 45.2847C49.1528 45.5592 49.1528 45.7788 49.0981 45.9436L47.6198 54.2343C51.5072 54.2343 52.5475 53.1362 52.876 51.1047C53.2045 49.2928 53.533 47.5358 53.8615 45.7239C53.971 45.2298 54.0258 44.8454 54.0258 44.6258C54.0805 44.4611 54.0805 44.1317 54.0805 43.5826Z" fill="#D80212"/>
<path d="M83.4274 43.748L84.5772 41.387C80.416 40.7282 79.54 43.3636 79.0472 43.9127C79.2662 42.2655 79.8138 40.4536 74.9408 40.8929L72.5317 54.3447C76.4739 54.3447 77.4047 53.1368 77.7879 51.1053L78.226 48.6895C78.445 47.4815 78.8282 46.6031 79.3757 46.1089C79.8138 45.7246 80.3065 45.505 80.8541 45.3951C82.1681 45.1755 82.2776 45.7795 83.4274 43.748Z" fill="#D80212"/>
<path d="M73.3531 41.0574C70.944 40.8927 68.8086 41.1672 68.4254 43.2536L66.29 54.2896C69.9037 54.2347 71.2177 53.0268 71.4915 51.1051C72.0938 47.701 72.696 44.4616 73.3531 41.0574Z" fill="#D80212"/>
<path d="M59.2272 49.1281C59.2272 48.9634 59.2272 48.7986 59.2272 48.6339C61.3077 48.6339 63.1146 48.2496 64.7024 47.426C69.1373 45.2298 67.1115 40.7275 62.5123 40.7275C51.1239 40.7275 50.9049 60.823 65.6879 52.4773C64.9214 48.3594 59.3914 53.6303 59.2272 49.1281ZM62.1838 43.0336C63.8811 43.0336 63.8811 45.2298 62.4575 45.9436C61.8005 46.273 60.815 46.4377 59.4462 46.4377C59.7747 45.0102 60.4317 43.0336 62.1838 43.0336Z" fill="#D80212"/>
<path d="M33.7125 40.7832C29.5513 40.7832 25.7734 44.1324 25.7734 48.5249C25.7734 51.9839 28.4015 54.6743 31.7962 54.6743C36.1763 54.6743 39.8447 51.7094 39.8447 46.9875C39.79 43.254 37.2714 40.7832 33.7125 40.7832ZM32.1794 52.2584C29.6061 52.2584 30.4274 43.1441 33.603 43.1441C35.6288 43.1441 35.4646 52.2584 32.1794 52.2584Z" fill="#D80212"/>
<path d="M71.2179 40.3436C71.9844 40.3436 72.6414 40.124 73.2437 39.7396C73.846 39.3553 74.1745 38.8062 74.284 38.0925C74.3387 37.7081 74.1745 37.3238 73.7365 36.9944C73.3532 36.6649 72.7509 36.4453 71.9844 36.4453C71.2726 36.4453 70.6703 36.6649 70.0681 37.0493C69.4658 37.4336 69.1373 37.9827 69.0825 38.5866C69.0278 39.0259 69.192 39.4102 69.5753 39.7946C70.0133 40.1789 70.5608 40.3436 71.2179 40.3436Z" fill="#D80212"/>
<path d="M23.9117 40.3436C24.6782 40.3436 25.3353 40.124 25.9375 39.7396C26.5398 39.3553 26.8683 38.8062 26.9778 38.0925C27.0326 37.7081 26.8683 37.3238 26.4303 36.9944C26.047 36.6649 25.4448 36.4453 24.6782 36.4453C23.9665 36.4453 23.3642 36.6649 22.7619 37.0493C22.1596 37.4336 21.8311 37.9827 21.7764 38.5866C21.7216 39.0259 21.8859 39.4102 22.2691 39.7946C22.6524 40.1789 23.1999 40.3436 23.9117 40.3436Z" fill="#D80212"/>
<path d="M20.9004 40.7284C20.9004 39.4107 20.4077 38.2576 19.4769 37.2693C18.5461 36.281 17.1225 35.8418 15.2062 35.8418H8.52646L5.13184 54.3449C9.62151 54.3449 10.169 53.4665 10.607 51.1604C10.8261 50.0074 11.0451 48.7995 11.2641 47.6465L13.2351 47.5916C15.4252 47.4269 17.1773 46.8229 18.5461 45.7248C20.1339 44.3521 20.9004 42.705 20.9004 40.7284ZM11.7568 44.462L12.7971 38.9165H14.0564C14.6039 38.9165 15.0967 39.1361 15.4252 39.6303C15.7537 40.1244 15.9727 40.6186 15.9727 41.2225C15.9727 43.6933 13.9469 44.5169 11.7568 44.462Z" fill="#D80212"/>
<path d="M21.065 43.2538L18.9297 54.2898C22.5433 54.2349 23.8574 53.0269 24.1311 51.1052C24.7334 47.7011 25.3904 44.4617 25.9927 41.1125C23.5836 40.8928 21.3935 41.2223 21.065 43.2538Z" fill="#D80212"/>
<path d="M101.55 41.5516C101.496 41.4966 101.496 41.4417 101.441 41.4417C101.441 41.4417 101.386 41.3868 101.331 41.3868C101.441 41.3868 101.55 41.3319 101.605 41.277C101.66 41.2221 101.715 41.1123 101.715 41.0025C101.715 40.9476 101.715 40.8378 101.66 40.7829C101.605 40.728 101.605 40.6731 101.55 40.6731C101.496 40.6182 101.441 40.6182 101.331 40.6182C101.277 40.6182 101.167 40.6182 100.893 40.6182H100.62V41.9908H100.893V41.4417H100.948C101.003 41.4417 101.112 41.4417 101.112 41.4966C101.167 41.5516 101.222 41.6065 101.277 41.7712L101.386 41.9908H101.715L101.55 41.7163C101.605 41.6065 101.55 41.5516 101.55 41.5516ZM101.331 41.2221C101.277 41.2221 101.167 41.2221 101.058 41.2221H100.948V40.8378H101.058C101.222 40.8378 101.331 40.8378 101.331 40.8378C101.386 40.8378 101.386 40.8927 101.441 40.8927C101.441 40.9476 101.496 40.9476 101.496 41.0025C101.496 41.0574 101.496 41.0574 101.441 41.1123C101.386 41.1672 101.331 41.1672 101.331 41.2221Z" fill="#D80212"/>
<path d="M101.824 40.1794C101.605 40.0696 101.386 40.0146 101.167 40.0146C100.948 40.0146 100.729 40.0696 100.51 40.1794C100.291 40.2892 100.127 40.4539 100.017 40.6735C99.9078 40.8931 99.853 41.1128 99.853 41.3324C99.853 41.552 99.9078 41.7716 100.017 41.9912C100.127 42.2109 100.291 42.3756 100.51 42.4854C100.729 42.5952 100.948 42.6501 101.167 42.6501C101.386 42.6501 101.605 42.5952 101.824 42.4854C102.043 42.3756 102.207 42.2109 102.317 41.9912C102.426 41.7716 102.481 41.552 102.481 41.3324C102.481 41.1128 102.426 40.8931 102.317 40.6735C102.207 40.4539 102.043 40.2892 101.824 40.1794ZM102.098 41.8265C101.988 41.9912 101.879 42.1011 101.715 42.2109C101.55 42.3207 101.386 42.3756 101.222 42.3756C101.058 42.3756 100.893 42.3207 100.729 42.2109C100.565 42.1011 100.455 41.9912 100.346 41.8265C100.236 41.6618 100.236 41.4971 100.236 41.2775C100.236 41.1128 100.291 40.8931 100.401 40.7284C100.51 40.5637 100.62 40.4539 100.784 40.3441C100.948 40.2343 101.112 40.2343 101.277 40.2343C101.441 40.2343 101.605 40.2892 101.769 40.3441C101.934 40.4539 102.043 40.5637 102.153 40.7284C102.262 40.8931 102.317 41.0579 102.317 41.2775C102.262 41.4971 102.207 41.6618 102.098 41.8265Z" fill="#D80212"/>
</svg>
